<svg width="341" height="158" viewBox="0 0 341 158" fill="none" xmlns="http://www.w3.org/2000/svg">
<path d="M4.82812 2.72414C4.82812 3.96307 3.84879 4.94828 2.66406 4.94828C1.47934 4.94828 0.5 3.96307 0.5 2.72414C0.5 1.48521 1.47934 0.5 2.66406 0.5C3.84879 0.5 4.82812 1.48521 4.82812 2.72414Z" fill="white" stroke="#0A1526"/>
<path d="M4.82812 24.5171C4.82812 25.756 3.84879 26.7412 2.66406 26.7412C1.47934 26.7412 0.5 25.756 0.5 24.5171C0.5 23.2782 1.47934 22.293 2.66406 22.293C3.84879 22.293 4.82812 23.2782 4.82812 24.5171Z" fill="white" stroke="#0A1526"/>
<path d="M4.82812 46.3103C4.82812 47.5492 3.84879 48.5345 2.66406 48.5345C1.47934 48.5345 0.5 47.5492 0.5 46.3103C0.5 45.0714 1.47934 44.0862 2.66406 44.0862C3.84879 44.0862 4.82812 45.0714 4.82812 46.3103Z" fill="white" stroke="#0A1526"/>
<path d="M4.82812 68.1035C4.82812 69.3425 3.84879 70.3277 2.66406 70.3277C1.47934 70.3277 0.5 69.3425 0.5 68.1035C0.5 66.8646 1.47934 65.8794 2.66406 65.8794C3.84879 65.8794 4.82812 66.8646 4.82812 68.1035Z" fill="white" stroke="#0A1526"/>
<path d="M4.82812 89.8967C4.82812 91.1357 3.84879 92.1209 2.66406 92.1209C1.47934 92.1209 0.5 91.1357 0.5 89.8967C0.5 88.6578 1.47934 87.6726 2.66406 87.6726C3.84879 87.6726 4.82812 88.6578 4.82812 89.8967Z" fill="white" stroke="#0A1526"/>
<path d="M4.82812 111.69C4.82812 112.929 3.84879 113.914 2.66406 113.914C1.47934 113.914 0.5 112.929 0.5 111.69C0.5 110.451 1.47934 109.466 2.66406 109.466C3.84879 109.466 4.82812 110.451 4.82812 111.69Z" fill="white" stroke="#0A1526"/>
<path d="M4.82812 133.483C4.82812 134.722 3.84879 135.707 2.66406 135.707C1.47934 135.707 0.5 134.722 0.5 133.483C0.5 132.244 1.47934 131.259 2.66406 131.259C3.84879 131.259 4.82812 132.244 4.82812 133.483Z" fill="white" stroke="#0A1526"/>
<path d="M4.82812 155.276C4.82812 156.515 3.84879 157.5 2.66406 157.5C1.47934 157.5 0.5 156.515 0.5 155.276C0.5 154.037 1.47934 153.052 2.66406 153.052C3.84879 153.052 4.82812 154.037 4.82812 155.276Z" fill="white" stroke="#0A1526"/>
<path d="M20.8125 2.72414C20.8125 3.96307 19.8332 4.94828 18.6484 4.94828C17.4637 4.94828 16.4844 3.96307 16.4844 2.72414C16.4844 1.48521 17.4637 0.5 18.6484 0.5C19.8332 0.5 20.8125 1.48521 20.8125 2.72414Z" fill="white" stroke="#0A1526"/>
<path d="M20.8125 24.5171C20.8125 25.756 19.8332 26.7412 18.6484 26.7412C17.4637 26.7412 16.4844 25.756 16.4844 24.5171C16.4844 23.2782 17.4637 22.293 18.6484 22.293C19.8332 22.293 20.8125 23.2782 20.8125 24.5171Z" fill="white" stroke="#0A1526"/>
<path d="M20.8125 46.3103C20.8125 47.5492 19.8332 48.5345 18.6484 48.5345C17.4637 48.5345 16.4844 47.5492 16.4844 46.3103C16.4844 45.0714 17.4637 44.0862 18.6484 44.0862C19.8332 44.0862 20.8125 45.0714 20.8125 46.3103Z" fill="white" stroke="#0A1526"/>
<path d="M20.8125 68.1035C20.8125 69.3425 19.8332 70.3277 18.6484 70.3277C17.4637 70.3277 16.4844 69.3425 16.4844 68.1035C16.4844 66.8646 17.4637 65.8794 18.6484 65.8794C19.8332 65.8794 20.8125 66.8646 20.8125 68.1035Z" fill="white" stroke="#0A1526"/>
<path d="M20.8125 89.8967C20.8125 91.1357 19.8332 92.1209 18.6484 92.1209C17.4637 92.1209 16.4844 91.1357 16.4844 89.8967C16.4844 88.6578 17.4637 87.6726 18.6484 87.6726C19.8332 87.6726 20.8125 88.6578 20.8125 89.8967Z" fill="white" stroke="#0A1526"/>
<path d="M20.8125 111.69C20.8125 112.929 19.8332 113.914 18.6484 113.914C17.4637 113.914 16.4844 112.929 16.4844 111.69C16.4844 110.451 17.4637 109.466 18.6484 109.466C19.8332 109.466 20.8125 110.451 20.8125 111.69Z" fill="white" stroke="#0A1526"/>
<path d="M20.8125 133.483C20.8125 134.722 19.8332 135.707 18.6484 135.707C17.4637 135.707 16.4844 134.722 16.4844 133.483C16.4844 132.244 17.4637 131.259 18.6484 131.259C19.8332 131.259 20.8125 132.244 20.8125 133.483Z" fill="white" stroke="#0A1526"/>
<path d="M20.8125 155.276C20.8125 156.515 19.8332 157.5 18.6484 157.5C17.4637 157.5 16.4844 156.515 16.4844 155.276C16.4844 154.037 17.4637 153.052 18.6484 153.052C19.8332 153.052 20.8125 154.037 20.8125 155.276Z" fill="white" stroke="#0A1526"/>
<path d="M36.7969 2.72414C36.7969 3.96307 35.8175 4.94828 34.6328 4.94828C33.4481 4.94828 32.4688 3.96307 32.4688 2.72414C32.4688 1.48521 33.4481 0.5 34.6328 0.5C35.8175 0.5 36.7969 1.48521 36.7969 2.72414Z" fill="white" stroke="#0A1526"/>
<path d="M36.7969 24.5171C36.7969 25.756 35.8175 26.7412 34.6328 26.7412C33.4481 26.7412 32.4688 25.756 32.4688 24.5171C32.4688 23.2782 33.4481 22.293 34.6328 22.293C35.8175 22.293 36.7969 23.2782 36.7969 24.5171Z" fill="white" stroke="#0A1526"/>
<path d="M36.7969 46.3103C36.7969 47.5492 35.8175 48.5345 34.6328 48.5345C33.4481 48.5345 32.4688 47.5492 32.4688 46.3103C32.4688 45.0714 33.4481 44.0862 34.6328 44.0862C35.8175 44.0862 36.7969 45.0714 36.7969 46.3103Z" fill="white" stroke="#0A1526"/>
<path d="M36.7969 68.1035C36.7969 69.3425 35.8175 70.3277 34.6328 70.3277C33.4481 70.3277 32.4688 69.3425 32.4688 68.1035C32.4688 66.8646 33.4481 65.8794 34.6328 65.8794C35.8175 65.8794 36.7969 66.8646 36.7969 68.1035Z" fill="white" stroke="#0A1526"/>
<path d="M36.7969 89.8967C36.7969 91.1357 35.8175 92.1209 34.6328 92.1209C33.4481 92.1209 32.4688 91.1357 32.4688 89.8967C32.4688 88.6578 33.4481 87.6726 34.6328 87.6726C35.8175 87.6726 36.7969 88.6578 36.7969 89.8967Z" fill="white" stroke="#0A1526"/>
<path d="M36.7969 111.69C36.7969 112.929 35.8175 113.914 34.6328 113.914C33.4481 113.914 32.4688 112.929 32.4688 111.69C32.4688 110.451 33.4481 109.466 34.6328 109.466C35.8175 109.466 36.7969 110.451 36.7969 111.69Z" fill="white" stroke="#0A1526"/>
<path d="M36.7969 133.483C36.7969 134.722 35.8175 135.707 34.6328 135.707C33.4481 135.707 32.4688 134.722 32.4688 133.483C32.4688 132.244 33.4481 131.259 34.6328 131.259C35.8175 131.259 36.7969 132.244 36.7969 133.483Z" fill="white" stroke="#0A1526"/>
<path d="M36.7969 155.276C36.7969 156.515 35.8175 157.5 34.6328 157.5C33.4481 157.5 32.4688 156.515 32.4688 155.276C32.4688 154.037 33.4481 153.052 34.6328 153.052C35.8175 153.052 36.7969 154.037 36.7969 155.276Z" fill="white" stroke="#0A1526"/>
<path d="M52.7812 2.72414C52.7812 3.96307 51.8019 4.94828 50.6172 4.94828C49.4325 4.94828 48.4531 3.96307 48.4531 2.72414C48.4531 1.48521 49.4325 0.5 50.6172 0.5C51.8019 0.5 52.7812 1.48521 52.7812 2.72414Z" fill="white" stroke="#0A1526"/>
<path d="M52.7812 24.5171C52.7812 25.756 51.8019 26.7412 50.6172 26.7412C49.4325 26.7412 48.4531 25.756 48.4531 24.5171C48.4531 23.2782 49.4325 22.293 50.6172 22.293C51.8019 22.293 52.7812 23.2782 52.7812 24.5171Z" fill="white" stroke="#0A1526"/>
<path d="M52.7812 46.3103C52.7812 47.5492 51.8019 48.5345 50.6172 48.5345C49.4325 48.5345 48.4531 47.5492 48.4531 46.3103C48.4531 45.0714 49.4325 44.0862 50.6172 44.0862C51.8019 44.0862 52.7812 45.0714 52.7812 46.3103Z" fill="white" stroke="#0A1526"/>
<path d="M52.7812 68.1035C52.7812 69.3425 51.8019 70.3277 50.6172 70.3277C49.4325 70.3277 48.4531 69.3425 48.4531 68.1035C48.4531 66.8646 49.4325 65.8794 50.6172 65.8794C51.8019 65.8794 52.7812 66.8646 52.7812 68.1035Z" fill="white" stroke="#0A1526"/>
<path d="M52.7812 89.8967C52.7812 91.1357 51.8019 92.1209 50.6172 92.1209C49.4325 92.1209 48.4531 91.1357 48.4531 89.8967C48.4531 88.6578 49.4325 87.6726 50.6172 87.6726C51.8019 87.6726 52.7812 88.6578 52.7812 89.8967Z" fill="white" stroke="#0A1526"/>
<path d="M52.7812 111.69C52.7812 112.929 51.8019 113.914 50.6172 113.914C49.4325 113.914 48.4531 112.929 48.4531 111.69C48.4531 110.451 49.4325 109.466 50.6172 109.466C51.8019 109.466 52.7812 110.451 52.7812 111.69Z" fill="white" stroke="#0A1526"/>
<path d="M52.7812 133.483C52.7812 134.722 51.8019 135.707 50.6172 135.707C49.4325 135.707 48.4531 134.722 48.4531 133.483C48.4531 132.244 49.4325 131.259 50.6172 131.259C51.8019 131.259 52.7812 132.244 52.7812 133.483Z" fill="white" stroke="#0A1526"/>
<path d="M52.7812 155.276C52.7812 156.515 51.8019 157.5 50.6172 157.5C49.4325 157.5 48.4531 156.515 48.4531 155.276C48.4531 154.037 49.4325 153.052 50.6172 153.052C51.8019 153.052 52.7812 154.037 52.7812 155.276Z" fill="white" stroke="#0A1526"/>
<path d="M68.7656 2.72414C68.7656 3.96307 67.7863 4.94828 66.6016 4.94828C65.4168 4.94828 64.4375 3.96307 64.4375 2.72414C64.4375 1.48521 65.4168 0.5 66.6016 0.5C67.7863 0.5 68.7656 1.48521 68.7656 2.72414Z" fill="white" stroke="#0A1526"/>
<path d="M68.7656 24.5171C68.7656 25.756 67.7863 26.7412 66.6016 26.7412C65.4168 26.7412 64.4375 25.756 64.4375 24.5171C64.4375 23.2782 65.4168 22.293 66.6016 22.293C67.7863 22.293 68.7656 23.2782 68.7656 24.5171Z" fill="white" stroke="#0A1526"/>
<path d="M68.7656 46.3103C68.7656 47.5492 67.7863 48.5345 66.6016 48.5345C65.4168 48.5345 64.4375 47.5492 64.4375 46.3103C64.4375 45.0714 65.4168 44.0862 66.6016 44.0862C67.7863 44.0862 68.7656 45.0714 68.7656 46.3103Z" fill="white" stroke="#0A1526"/>
<path d="M68.7656 68.1035C68.7656 69.3425 67.7863 70.3277 66.6016 70.3277C65.4168 70.3277 64.4375 69.3425 64.4375 68.1035C64.4375 66.8646 65.4168 65.8794 66.6016 65.8794C67.7863 65.8794 68.7656 66.8646 68.7656 68.1035Z" fill="white" stroke="#0A1526"/>
<path d="M68.7656 89.8967C68.7656 91.1357 67.7863 92.1209 66.6016 92.1209C65.4168 92.1209 64.4375 91.1357 64.4375 89.8967C64.4375 88.6578 65.4168 87.6726 66.6016 87.6726C67.7863 87.6726 68.7656 88.6578 68.7656 89.8967Z" fill="white" stroke="#0A1526"/>
<path d="M68.7656 111.69C68.7656 112.929 67.7863 113.914 66.6016 113.914C65.4168 113.914 64.4375 112.929 64.4375 111.69C64.4375 110.451 65.4168 109.466 66.6016 109.466C67.7863 109.466 68.7656 110.451 68.7656 111.69Z" fill="white" stroke="#0A1526"/>
<path d="M68.7656 133.483C68.7656 134.722 67.7863 135.707 66.6016 135.707C65.4168 135.707 64.4375 134.722 64.4375 133.483C64.4375 132.244 65.4168 131.259 66.6016 131.259C67.7863 131.259 68.7656 132.244 68.7656 133.483Z" fill="white" stroke="#0A1526"/>
<path d="M68.7656 155.276C68.7656 156.515 67.7863 157.5 66.6016 157.5C65.4168 157.5 64.4375 156.515 64.4375 155.276C64.4375 154.037 65.4168 153.052 66.6016 153.052C67.7863 153.052 68.7656 154.037 68.7656 155.276Z" fill="white" stroke="#0A1526"/>
<path d="M84.75 2.72414C84.75 3.96307 83.7707 4.94828 82.5859 4.94828C81.4012 4.94828 80.4219 3.96307 80.4219 2.72414C80.4219 1.48521 81.4012 0.5 82.5859 0.5C83.7707 0.5 84.75 1.48521 84.75 2.72414Z" fill="white" stroke="#0A1526"/>
<path d="M84.75 24.5171C84.75 25.756 83.7707 26.7412 82.5859 26.7412C81.4012 26.7412 80.4219 25.756 80.4219 24.5171C80.4219 23.2782 81.4012 22.293 82.5859 22.293C83.7707 22.293 84.75 23.2782 84.75 24.5171Z" fill="white" stroke="#0A1526"/>
<path d="M84.75 46.3103C84.75 47.5492 83.7707 48.5345 82.5859 48.5345C81.4012 48.5345 80.4219 47.5492 80.4219 46.3103C80.4219 45.0714 81.4012 44.0862 82.5859 44.0862C83.7707 44.0862 84.75 45.0714 84.75 46.3103Z" fill="white" stroke="#0A1526"/>
<path d="M84.75 68.1035C84.75 69.3425 83.7707 70.3277 82.5859 70.3277C81.4012 70.3277 80.4219 69.3425 80.4219 68.1035C80.4219 66.8646 81.4012 65.8794 82.5859 65.8794C83.7707 65.8794 84.75 66.8646 84.75 68.1035Z" fill="white" stroke="#0A1526"/>
<path d="M84.75 89.8967C84.75 91.1357 83.7707 92.1209 82.5859 92.1209C81.4012 92.1209 80.4219 91.1357 80.4219 89.8967C80.4219 88.6578 81.4012 87.6726 82.5859 87.6726C83.7707 87.6726 84.75 88.6578 84.75 89.8967Z" fill="white" stroke="#0A1526"/>
<path d="M84.75 111.69C84.75 112.929 83.7707 113.914 82.5859 113.914C81.4012 113.914 80.4219 112.929 80.4219 111.69C80.4219 110.451 81.4012 109.466 82.5859 109.466C83.7707 109.466 84.75 110.451 84.75 111.69Z" fill="white" stroke="#0A1526"/>
<path d="M84.75 133.483C84.75 134.722 83.7707 135.707 82.5859 135.707C81.4012 135.707 80.4219 134.722 80.4219 133.483C80.4219 132.244 81.4012 131.259 82.5859 131.259C83.7707 131.259 84.75 132.244 84.75 133.483Z" fill="white" stroke="#0A1526"/>
<path d="M84.75 155.276C84.75 156.515 83.7707 157.5 82.5859 157.5C81.4012 157.5 80.4219 156.515 80.4219 155.276C80.4219 154.037 81.4012 153.052 82.5859 153.052C83.7707 153.052 84.75 154.037 84.75 155.276Z" fill="white" stroke="#0A1526"/>
<path d="M100.734 2.72414C100.734 3.96307 99.755 4.94828 98.5703 4.94828C97.3856 4.94828 96.4062 3.96307 96.4062 2.72414C96.4062 1.48521 97.3856 0.5 98.5703 0.5C99.755 0.5 100.734 1.48521 100.734 2.72414Z" fill="white" stroke="#0A1526"/>
<path d="M100.734 24.5171C100.734 25.756 99.755 26.7412 98.5703 26.7412C97.3856 26.7412 96.4062 25.756 96.4062 24.5171C96.4062 23.2782 97.3856 22.293 98.5703 22.293C99.755 22.293 100.734 23.2782 100.734 24.5171Z" fill="white" stroke="#0A1526"/>
<path d="M100.734 46.3103C100.734 47.5492 99.755 48.5345 98.5703 48.5345C97.3856 48.5345 96.4062 47.5492 96.4062 46.3103C96.4062 45.0714 97.3856 44.0862 98.5703 44.0862C99.755 44.0862 100.734 45.0714 100.734 46.3103Z" fill="white" stroke="#0A1526"/>
<path d="M100.734 68.1035C100.734 69.3425 99.755 70.3277 98.5703 70.3277C97.3856 70.3277 96.4062 69.3425 96.4062 68.1035C96.4062 66.8646 97.3856 65.8794 98.5703 65.8794C99.755 65.8794 100.734 66.8646 100.734 68.1035Z" fill="white" stroke="#0A1526"/>
<path d="M100.734 89.8967C100.734 91.1357 99.755 92.1209 98.5703 92.1209C97.3856 92.1209 96.4062 91.1357 96.4062 89.8967C96.4062 88.6578 97.3856 87.6726 98.5703 87.6726C99.755 87.6726 100.734 88.6578 100.734 89.8967Z" fill="white" stroke="#0A1526"/>
<path d="M100.734 111.69C100.734 112.929 99.755 113.914 98.5703 113.914C97.3856 113.914 96.4062 112.929 96.4062 111.69C96.4062 110.451 97.3856 109.466 98.5703 109.466C99.755 109.466 100.734 110.451 100.734 111.69Z" fill="white" stroke="#0A1526"/>
<path d="M100.734 133.483C100.734 134.722 99.755 135.707 98.5703 135.707C97.3856 135.707 96.4062 134.722 96.4062 133.483C96.4062 132.244 97.3856 131.259 98.5703 131.259C99.755 131.259 100.734 132.244 100.734 133.483Z" fill="white" stroke="#0A1526"/>
<path d="M100.734 155.276C100.734 156.515 99.755 157.5 98.5703 157.5C97.3856 157.5 96.4062 156.515 96.4062 155.276C96.4062 154.037 97.3856 153.052 98.5703 153.052C99.755 153.052 100.734 154.037 100.734 155.276Z" fill="white" stroke="#0A1526"/>
<path d="M116.719 2.72414C116.719 3.96307 115.739 4.94828 114.555 4.94828C113.37 4.94828 112.391 3.96307 112.391 2.72414C112.391 1.48521 113.37 0.5 114.555 0.5C115.739 0.5 116.719 1.48521 116.719 2.72414Z" fill="white" stroke="#0A1526"/>
<path d="M116.719 24.5171C116.719 25.756 115.739 26.7412 114.555 26.7412C113.37 26.7412 112.391 25.756 112.391 24.5171C112.391 23.2782 113.37 22.293 114.555 22.293C115.739 22.293 116.719 23.2782 116.719 24.5171Z" fill="white" stroke="#0A1526"/>
<path d="M116.719 46.3103C116.719 47.5492 115.739 48.5345 114.555 48.5345C113.37 48.5345 112.391 47.5492 112.391 46.3103C112.391 45.0714 113.37 44.0862 114.555 44.0862C115.739 44.0862 116.719 45.0714 116.719 46.3103Z" fill="white" stroke="#0A1526"/>
<path d="M116.719 68.1035C116.719 69.3425 115.739 70.3277 114.555 70.3277C113.37 70.3277 112.391 69.3425 112.391 68.1035C112.391 66.8646 113.37 65.8794 114.555 65.8794C115.739 65.8794 116.719 66.8646 116.719 68.1035Z" fill="white" stroke="#0A1526"/>
<path d="M116.719 89.8967C116.719 91.1357 115.739 92.1209 114.555 92.1209C113.37 92.1209 112.391 91.1357 112.391 89.8967C112.391 88.6578 113.37 87.6726 114.555 87.6726C115.739 87.6726 116.719 88.6578 116.719 89.8967Z" fill="white" stroke="#0A1526"/>
<path d="M116.719 111.69C116.719 112.929 115.739 113.914 114.555 113.914C113.37 113.914 112.391 112.929 112.391 111.69C112.391 110.451 113.37 109.466 114.555 109.466C115.739 109.466 116.719 110.451 116.719 111.69Z" fill="white" stroke="#0A1526"/>
<path d="M116.719 133.483C116.719 134.722 115.739 135.707 114.555 135.707C113.37 135.707 112.391 134.722 112.391 133.483C112.391 132.244 113.37 131.259 114.555 131.259C115.739 131.259 116.719 132.244 116.719 133.483Z" fill="white" stroke="#0A1526"/>
<path d="M116.719 155.276C116.719 156.515 115.739 157.5 114.555 157.5C113.37 157.5 112.391 156.515 112.391 155.276C112.391 154.037 113.37 153.052 114.555 153.052C115.739 153.052 116.719 154.037 116.719 155.276Z" fill="white" stroke="#0A1526"/>
<path d="M132.703 2.72414C132.703 3.96307 131.724 4.94828 130.539 4.94828C129.354 4.94828 128.375 3.96307 128.375 2.72414C128.375 1.48521 129.354 0.5 130.539 0.5C131.724 0.5 132.703 1.48521 132.703 2.72414Z" fill="white" stroke="#0A1526"/>
<path d="M132.703 24.5171C132.703 25.756 131.724 26.7412 130.539 26.7412C129.354 26.7412 128.375 25.756 128.375 24.5171C128.375 23.2782 129.354 22.293 130.539 22.293C131.724 22.293 132.703 23.2782 132.703 24.5171Z" fill="white" stroke="#0A1526"/>
<path d="M132.703 46.3103C132.703 47.5492 131.724 48.5345 130.539 48.5345C129.354 48.5345 128.375 47.5492 128.375 46.3103C128.375 45.0714 129.354 44.0862 130.539 44.0862C131.724 44.0862 132.703 45.0714 132.703 46.3103Z" fill="white" stroke="#0A1526"/>
<path d="M132.703 68.1035C132.703 69.3425 131.724 70.3277 130.539 70.3277C129.354 70.3277 128.375 69.3425 128.375 68.1035C128.375 66.8646 129.354 65.8794 130.539 65.8794C131.724 65.8794 132.703 66.8646 132.703 68.1035Z" fill="white" stroke="#0A1526"/>
<path d="M132.703 89.8967C132.703 91.1357 131.724 92.1209 130.539 92.1209C129.354 92.1209 128.375 91.1357 128.375 89.8967C128.375 88.6578 129.354 87.6726 130.539 87.6726C131.724 87.6726 132.703 88.6578 132.703 89.8967Z" fill="white" stroke="#0A1526"/>
<path d="M132.703 111.69C132.703 112.929 131.724 113.914 130.539 113.914C129.354 113.914 128.375 112.929 128.375 111.69C128.375 110.451 129.354 109.466 130.539 109.466C131.724 109.466 132.703 110.451 132.703 111.69Z" fill="white" stroke="#0A1526"/>
<path d="M132.703 133.483C132.703 134.722 131.724 135.707 130.539 135.707C129.354 135.707 128.375 134.722 128.375 133.483C128.375 132.244 129.354 131.259 130.539 131.259C131.724 131.259 132.703 132.244 132.703 133.483Z" fill="white" stroke="#0A1526"/>
<path d="M132.703 155.276C132.703 156.515 131.724 157.5 130.539 157.5C129.354 157.5 128.375 156.515 128.375 155.276C128.375 154.037 129.354 153.052 130.539 153.052C131.724 153.052 132.703 154.037 132.703 155.276Z" fill="white" stroke="#0A1526"/>
<path d="M148.688 2.72414C148.688 3.96307 147.708 4.94828 146.523 4.94828C145.339 4.94828 144.359 3.96307 144.359 2.72414C144.359 1.48521 145.339 0.5 146.523 0.5C147.708 0.5 148.688 1.48521 148.688 2.72414Z" fill="white" stroke="#0A1526"/>
<path d="M148.688 24.5171C148.688 25.756 147.708 26.7412 146.523 26.7412C145.339 26.7412 144.359 25.756 144.359 24.5171C144.359 23.2782 145.339 22.293 146.523 22.293C147.708 22.293 148.688 23.2782 148.688 24.5171Z" fill="white" stroke="#0A1526"/>
<path d="M148.688 46.3103C148.688 47.5492 147.708 48.5345 146.523 48.5345C145.339 48.5345 144.359 47.5492 144.359 46.3103C144.359 45.0714 145.339 44.0862 146.523 44.0862C147.708 44.0862 148.688 45.0714 148.688 46.3103Z" fill="white" stroke="#0A1526"/>
<path d="M148.688 68.1035C148.688 69.3425 147.708 70.3277 146.523 70.3277C145.339 70.3277 144.359 69.3425 144.359 68.1035C144.359 66.8646 145.339 65.8794 146.523 65.8794C147.708 65.8794 148.688 66.8646 148.688 68.1035Z" fill="white" stroke="#0A1526"/>
<path d="M148.688 89.8967C148.688 91.1357 147.708 92.1209 146.523 92.1209C145.339 92.1209 144.359 91.1357 144.359 89.8967C144.359 88.6578 145.339 87.6726 146.523 87.6726C147.708 87.6726 148.688 88.6578 148.688 89.8967Z" fill="white" stroke="#0A1526"/>
<path d="M148.688 111.69C148.688 112.929 147.708 113.914 146.523 113.914C145.339 113.914 144.359 112.929 144.359 111.69C144.359 110.451 145.339 109.466 146.523 109.466C147.708 109.466 148.688 110.451 148.688 111.69Z" fill="white" stroke="#0A1526"/>
<path d="M148.688 133.483C148.688 134.722 147.708 135.707 146.523 135.707C145.339 135.707 144.359 134.722 144.359 133.483C144.359 132.244 145.339 131.259 146.523 131.259C147.708 131.259 148.688 132.244 148.688 133.483Z" fill="white" stroke="#0A1526"/>
<path d="M148.688 155.276C148.688 156.515 147.708 157.5 146.523 157.5C145.339 157.5 144.359 156.515 144.359 155.276C144.359 154.037 145.339 153.052 146.523 153.052C147.708 153.052 148.688 154.037 148.688 155.276Z" fill="white" stroke="#0A1526"/>
<path d="M164.672 2.72414C164.672 3.96307 163.693 4.94828 162.508 4.94828C161.323 4.94828 160.344 3.96307 160.344 2.72414C160.344 1.48521 161.323 0.5 162.508 0.5C163.693 0.5 164.672 1.48521 164.672 2.72414Z" fill="white" stroke="#0A1526"/>
<path d="M164.672 24.5171C164.672 25.756 163.693 26.7412 162.508 26.7412C161.323 26.7412 160.344 25.756 160.344 24.5171C160.344 23.2782 161.323 22.293 162.508 22.293C163.693 22.293 164.672 23.2782 164.672 24.5171Z" fill="white" stroke="#0A1526"/>
<path d="M164.672 46.3103C164.672 47.5492 163.693 48.5345 162.508 48.5345C161.323 48.5345 160.344 47.5492 160.344 46.3103C160.344 45.0714 161.323 44.0862 162.508 44.0862C163.693 44.0862 164.672 45.0714 164.672 46.3103Z" fill="white" stroke="#0A1526"/>
<path d="M164.672 68.1035C164.672 69.3425 163.693 70.3277 162.508 70.3277C161.323 70.3277 160.344 69.3425 160.344 68.1035C160.344 66.8646 161.323 65.8794 162.508 65.8794C163.693 65.8794 164.672 66.8646 164.672 68.1035Z" fill="white" stroke="#0A1526"/>
<path d="M164.672 89.8967C164.672 91.1357 163.693 92.1209 162.508 92.1209C161.323 92.1209 160.344 91.1357 160.344 89.8967C160.344 88.6578 161.323 87.6726 162.508 87.6726C163.693 87.6726 164.672 88.6578 164.672 89.8967Z" fill="white" stroke="#0A1526"/>
<path d="M164.672 111.69C164.672 112.929 163.693 113.914 162.508 113.914C161.323 113.914 160.344 112.929 160.344 111.69C160.344 110.451 161.323 109.466 162.508 109.466C163.693 109.466 164.672 110.451 164.672 111.69Z" fill="white" stroke="#0A1526"/>
<path d="M164.672 133.483C164.672 134.722 163.693 135.707 162.508 135.707C161.323 135.707 160.344 134.722 160.344 133.483C160.344 132.244 161.323 131.259 162.508 131.259C163.693 131.259 164.672 132.244 164.672 133.483Z" fill="white" stroke="#0A1526"/>
<path d="M164.672 155.276C164.672 156.515 163.693 157.5 162.508 157.5C161.323 157.5 160.344 156.515 160.344 155.276C160.344 154.037 161.323 153.052 162.508 153.052C163.693 153.052 164.672 154.037 164.672 155.276Z" fill="white" stroke="#0A1526"/>
<path d="M180.656 2.72414C180.656 3.96307 179.677 4.94828 178.492 4.94828C177.307 4.94828 176.328 3.96307 176.328 2.72414C176.328 1.48521 177.307 0.5 178.492 0.5C179.677 0.5 180.656 1.48521 180.656 2.72414Z" fill="white" stroke="#0A1526"/>
<path d="M180.656 24.5171C180.656 25.756 179.677 26.7412 178.492 26.7412C177.307 26.7412 176.328 25.756 176.328 24.5171C176.328 23.2782 177.307 22.293 178.492 22.293C179.677 22.293 180.656 23.2782 180.656 24.5171Z" fill="white" stroke="#0A1526"/>
<path d="M180.656 46.3103C180.656 47.5492 179.677 48.5345 178.492 48.5345C177.307 48.5345 176.328 47.5492 176.328 46.3103C176.328 45.0714 177.307 44.0862 178.492 44.0862C179.677 44.0862 180.656 45.0714 180.656 46.3103Z" fill="white" stroke="#0A1526"/>
<path d="M180.656 68.1035C180.656 69.3425 179.677 70.3277 178.492 70.3277C177.307 70.3277 176.328 69.3425 176.328 68.1035C176.328 66.8646 177.307 65.8794 178.492 65.8794C179.677 65.8794 180.656 66.8646 180.656 68.1035Z" fill="white" stroke="#0A1526"/>
<path d="M180.656 89.8967C180.656 91.1357 179.677 92.1209 178.492 92.1209C177.307 92.1209 176.328 91.1357 176.328 89.8967C176.328 88.6578 177.307 87.6726 178.492 87.6726C179.677 87.6726 180.656 88.6578 180.656 89.8967Z" fill="white" stroke="#0A1526"/>
<path d="M180.656 111.69C180.656 112.929 179.677 113.914 178.492 113.914C177.307 113.914 176.328 112.929 176.328 111.69C176.328 110.451 177.307 109.466 178.492 109.466C179.677 109.466 180.656 110.451 180.656 111.69Z" fill="white" stroke="#0A1526"/>
<path d="M180.656 133.483C180.656 134.722 179.677 135.707 178.492 135.707C177.307 135.707 176.328 134.722 176.328 133.483C176.328 132.244 177.307 131.259 178.492 131.259C179.677 131.259 180.656 132.244 180.656 133.483Z" fill="white" stroke="#0A1526"/>
<path d="M180.656 155.276C180.656 156.515 179.677 157.5 178.492 157.5C177.307 157.5 176.328 156.515 176.328 155.276C176.328 154.037 177.307 153.052 178.492 153.052C179.677 153.052 180.656 154.037 180.656 155.276Z" fill="white" stroke="#0A1526"/>
<path d="M196.641 2.72414C196.641 3.96307 195.661 4.94828 194.477 4.94828C193.292 4.94828 192.312 3.96307 192.312 2.72414C192.312 1.48521 193.292 0.5 194.477 0.5C195.661 0.5 196.641 1.48521 196.641 2.72414Z" fill="white" stroke="#0A1526"/>
<path d="M196.641 24.5171C196.641 25.756 195.661 26.7412 194.477 26.7412C193.292 26.7412 192.312 25.756 192.312 24.5171C192.312 23.2782 193.292 22.293 194.477 22.293C195.661 22.293 196.641 23.2782 196.641 24.5171Z" fill="white" stroke="#0A1526"/>
<path d="M196.641 46.3103C196.641 47.5492 195.661 48.5345 194.477 48.5345C193.292 48.5345 192.312 47.5492 192.312 46.3103C192.312 45.0714 193.292 44.0862 194.477 44.0862C195.661 44.0862 196.641 45.0714 196.641 46.3103Z" fill="white" stroke="#0A1526"/>
<path d="M196.641 68.1035C196.641 69.3425 195.661 70.3277 194.477 70.3277C193.292 70.3277 192.312 69.3425 192.312 68.1035C192.312 66.8646 193.292 65.8794 194.477 65.8794C195.661 65.8794 196.641 66.8646 196.641 68.1035Z" fill="white" stroke="#0A1526"/>
<path d="M196.641 89.8967C196.641 91.1357 195.661 92.1209 194.477 92.1209C193.292 92.1209 192.312 91.1357 192.312 89.8967C192.312 88.6578 193.292 87.6726 194.477 87.6726C195.661 87.6726 196.641 88.6578 196.641 89.8967Z" fill="white" stroke="#0A1526"/>
<path d="M196.641 111.69C196.641 112.929 195.661 113.914 194.477 113.914C193.292 113.914 192.312 112.929 192.312 111.69C192.312 110.451 193.292 109.466 194.477 109.466C195.661 109.466 196.641 110.451 196.641 111.69Z" fill="white" stroke="#0A1526"/>
<path d="M196.641 133.483C196.641 134.722 195.661 135.707 194.477 135.707C193.292 135.707 192.312 134.722 192.312 133.483C192.312 132.244 193.292 131.259 194.477 131.259C195.661 131.259 196.641 132.244 196.641 133.483Z" fill="white" stroke="#0A1526"/>
<path d="M196.641 155.276C196.641 156.515 195.661 157.5 194.477 157.5C193.292 157.5 192.312 156.515 192.312 155.276C192.312 154.037 193.292 153.052 194.477 153.052C195.661 153.052 196.641 154.037 196.641 155.276Z" fill="white" stroke="#0A1526"/>
<path d="M212.625 2.72414C212.625 3.96307 211.646 4.94828 210.461 4.94828C209.276 4.94828 208.297 3.96307 208.297 2.72414C208.297 1.48521 209.276 0.5 210.461 0.5C211.646 0.5 212.625 1.48521 212.625 2.72414Z" fill="white" stroke="#0A1526"/>
<path d="M212.625 24.5171C212.625 25.756 211.646 26.7412 210.461 26.7412C209.276 26.7412 208.297 25.756 208.297 24.5171C208.297 23.2782 209.276 22.293 210.461 22.293C211.646 22.293 212.625 23.2782 212.625 24.5171Z" fill="white" stroke="#0A1526"/>
<path d="M212.625 46.3103C212.625 47.5492 211.646 48.5345 210.461 48.5345C209.276 48.5345 208.297 47.5492 208.297 46.3103C208.297 45.0714 209.276 44.0862 210.461 44.0862C211.646 44.0862 212.625 45.0714 212.625 46.3103Z" fill="white" stroke="#0A1526"/>
<path d="M212.625 68.1035C212.625 69.3425 211.646 70.3277 210.461 70.3277C209.276 70.3277 208.297 69.3425 208.297 68.1035C208.297 66.8646 209.276 65.8794 210.461 65.8794C211.646 65.8794 212.625 66.8646 212.625 68.1035Z" fill="white" stroke="#0A1526"/>
<path d="M212.625 89.8967C212.625 91.1357 211.646 92.1209 210.461 92.1209C209.276 92.1209 208.297 91.1357 208.297 89.8967C208.297 88.6578 209.276 87.6726 210.461 87.6726C211.646 87.6726 212.625 88.6578 212.625 89.8967Z" fill="white" stroke="#0A1526"/>
<path d="M212.625 111.69C212.625 112.929 211.646 113.914 210.461 113.914C209.276 113.914 208.297 112.929 208.297 111.69C208.297 110.451 209.276 109.466 210.461 109.466C211.646 109.466 212.625 110.451 212.625 111.69Z" fill="white" stroke="#0A1526"/>
<path d="M212.625 133.483C212.625 134.722 211.646 135.707 210.461 135.707C209.276 135.707 208.297 134.722 208.297 133.483C208.297 132.244 209.276 131.259 210.461 131.259C211.646 131.259 212.625 132.244 212.625 133.483Z" fill="white" stroke="#0A1526"/>
<path d="M212.625 155.276C212.625 156.515 211.646 157.5 210.461 157.5C209.276 157.5 208.297 156.515 208.297 155.276C208.297 154.037 209.276 153.052 210.461 153.052C211.646 153.052 212.625 154.037 212.625 155.276Z" fill="white" stroke="#0A1526"/>
<path d="M228.609 2.72414C228.609 3.96307 227.63 4.94828 226.445 4.94828C225.261 4.94828 224.281 3.96307 224.281 2.72414C224.281 1.48521 225.261 0.5 226.445 0.5C227.63 0.5 228.609 1.48521 228.609 2.72414Z" fill="white" stroke="#0A1526"/>
<path d="M228.609 24.5171C228.609 25.756 227.63 26.7412 226.445 26.7412C225.261 26.7412 224.281 25.756 224.281 24.5171C224.281 23.2782 225.261 22.293 226.445 22.293C227.63 22.293 228.609 23.2782 228.609 24.5171Z" fill="white" stroke="#0A1526"/>
<path d="M228.609 46.3103C228.609 47.5492 227.63 48.5345 226.445 48.5345C225.261 48.5345 224.281 47.5492 224.281 46.3103C224.281 45.0714 225.261 44.0862 226.445 44.0862C227.63 44.0862 228.609 45.0714 228.609 46.3103Z" fill="white" stroke="#0A1526"/>
<path d="M228.609 68.1035C228.609 69.3425 227.63 70.3277 226.445 70.3277C225.261 70.3277 224.281 69.3425 224.281 68.1035C224.281 66.8646 225.261 65.8794 226.445 65.8794C227.63 65.8794 228.609 66.8646 228.609 68.1035Z" fill="white" stroke="#0A1526"/>
<path d="M228.609 89.8967C228.609 91.1357 227.63 92.1209 226.445 92.1209C225.261 92.1209 224.281 91.1357 224.281 89.8967C224.281 88.6578 225.261 87.6726 226.445 87.6726C227.63 87.6726 228.609 88.6578 228.609 89.8967Z" fill="white" stroke="#0A1526"/>
<path d="M228.609 111.69C228.609 112.929 227.63 113.914 226.445 113.914C225.261 113.914 224.281 112.929 224.281 111.69C224.281 110.451 225.261 109.466 226.445 109.466C227.63 109.466 228.609 110.451 228.609 111.69Z" fill="white" stroke="#0A1526"/>
<path d="M228.609 133.483C228.609 134.722 227.63 135.707 226.445 135.707C225.261 135.707 224.281 134.722 224.281 133.483C224.281 132.244 225.261 131.259 226.445 131.259C227.63 131.259 228.609 132.244 228.609 133.483Z" fill="white" stroke="#0A1526"/>
<path d="M228.609 155.276C228.609 156.515 227.63 157.5 226.445 157.5C225.261 157.5 224.281 156.515 224.281 155.276C224.281 154.037 225.261 153.052 226.445 153.052C227.63 153.052 228.609 154.037 228.609 155.276Z" fill="white" stroke="#0A1526"/>
<path d="M244.594 2.72414C244.594 3.96307 243.614 4.94828 242.43 4.94828C241.245 4.94828 240.266 3.96307 240.266 2.72414C240.266 1.48521 241.245 0.5 242.43 0.5C243.614 0.5 244.594 1.48521 244.594 2.72414Z" fill="white" stroke="#0A1526"/>
<path d="M244.594 24.5171C244.594 25.756 243.614 26.7412 242.43 26.7412C241.245 26.7412 240.266 25.756 240.266 24.5171C240.266 23.2782 241.245 22.293 242.43 22.293C243.614 22.293 244.594 23.2782 244.594 24.5171Z" fill="white" stroke="#0A1526"/>
<path d="M244.594 46.3103C244.594 47.5492 243.614 48.5345 242.43 48.5345C241.245 48.5345 240.266 47.5492 240.266 46.3103C240.266 45.0714 241.245 44.0862 242.43 44.0862C243.614 44.0862 244.594 45.0714 244.594 46.3103Z" fill="white" stroke="#0A1526"/>
<path d="M244.594 68.1035C244.594 69.3425 243.614 70.3277 242.43 70.3277C241.245 70.3277 240.266 69.3425 240.266 68.1035C240.266 66.8646 241.245 65.8794 242.43 65.8794C243.614 65.8794 244.594 66.8646 244.594 68.1035Z" fill="white" stroke="#0A1526"/>
<path d="M244.594 89.8967C244.594 91.1357 243.614 92.1209 242.43 92.1209C241.245 92.1209 240.266 91.1357 240.266 89.8967C240.266 88.6578 241.245 87.6726 242.43 87.6726C243.614 87.6726 244.594 88.6578 244.594 89.8967Z" fill="white" stroke="#0A1526"/>
<path d="M244.594 111.69C244.594 112.929 243.614 113.914 242.43 113.914C241.245 113.914 240.266 112.929 240.266 111.69C240.266 110.451 241.245 109.466 242.43 109.466C243.614 109.466 244.594 110.451 244.594 111.69Z" fill="white" stroke="#0A1526"/>
<path d="M244.594 133.483C244.594 134.722 243.614 135.707 242.43 135.707C241.245 135.707 240.266 134.722 240.266 133.483C240.266 132.244 241.245 131.259 242.43 131.259C243.614 131.259 244.594 132.244 244.594 133.483Z" fill="white" stroke="#0A1526"/>
<path d="M244.594 155.276C244.594 156.515 243.614 157.5 242.43 157.5C241.245 157.5 240.266 156.515 240.266 155.276C240.266 154.037 241.245 153.052 242.43 153.052C243.614 153.052 244.594 154.037 244.594 155.276Z" fill="white" stroke="#0A1526"/>
<path d="M260.578 2.72414C260.578 3.96307 259.599 4.94828 258.414 4.94828C257.229 4.94828 256.25 3.96307 256.25 2.72414C256.25 1.48521 257.229 0.5 258.414 0.5C259.599 0.5 260.578 1.48521 260.578 2.72414Z" fill="white" stroke="#0A1526"/>
<path d="M260.578 24.5171C260.578 25.756 259.599 26.7412 258.414 26.7412C257.229 26.7412 256.25 25.756 256.25 24.5171C256.25 23.2782 257.229 22.293 258.414 22.293C259.599 22.293 260.578 23.2782 260.578 24.5171Z" fill="white" stroke="#0A1526"/>
<path d="M260.578 46.3103C260.578 47.5492 259.599 48.5345 258.414 48.5345C257.229 48.5345 256.25 47.5492 256.25 46.3103C256.25 45.0714 257.229 44.0862 258.414 44.0862C259.599 44.0862 260.578 45.0714 260.578 46.3103Z" fill="white" stroke="#0A1526"/>
<path d="M260.578 68.1035C260.578 69.3425 259.599 70.3277 258.414 70.3277C257.229 70.3277 256.25 69.3425 256.25 68.1035C256.25 66.8646 257.229 65.8794 258.414 65.8794C259.599 65.8794 260.578 66.8646 260.578 68.1035Z" fill="white" stroke="#0A1526"/>
<path d="M260.578 89.8967C260.578 91.1357 259.599 92.1209 258.414 92.1209C257.229 92.1209 256.25 91.1357 256.25 89.8967C256.25 88.6578 257.229 87.6726 258.414 87.6726C259.599 87.6726 260.578 88.6578 260.578 89.8967Z" fill="white" stroke="#0A1526"/>
<path d="M260.578 111.69C260.578 112.929 259.599 113.914 258.414 113.914C257.229 113.914 256.25 112.929 256.25 111.69C256.25 110.451 257.229 109.466 258.414 109.466C259.599 109.466 260.578 110.451 260.578 111.69Z" fill="white" stroke="#0A1526"/>
<path d="M260.578 133.483C260.578 134.722 259.599 135.707 258.414 135.707C257.229 135.707 256.25 134.722 256.25 133.483C256.25 132.244 257.229 131.259 258.414 131.259C259.599 131.259 260.578 132.244 260.578 133.483Z" fill="white" stroke="#0A1526"/>
<path d="M260.578 155.276C260.578 156.515 259.599 157.5 258.414 157.5C257.229 157.5 256.25 156.515 256.25 155.276C256.25 154.037 257.229 153.052 258.414 153.052C259.599 153.052 260.578 154.037 260.578 155.276Z" fill="white" stroke="#0A1526"/>
<path d="M276.562 2.72414C276.562 3.96307 275.583 4.94828 274.398 4.94828C273.214 4.94828 272.234 3.96307 272.234 2.72414C272.234 1.48521 273.214 0.5 274.398 0.5C275.583 0.5 276.562 1.48521 276.562 2.72414Z" fill="white" stroke="#0A1526"/>
<path d="M276.562 24.5171C276.562 25.756 275.583 26.7412 274.398 26.7412C273.214 26.7412 272.234 25.756 272.234 24.5171C272.234 23.2782 273.214 22.293 274.398 22.293C275.583 22.293 276.562 23.2782 276.562 24.5171Z" fill="white" stroke="#0A1526"/>
<path d="M276.562 46.3103C276.562 47.5492 275.583 48.5345 274.398 48.5345C273.214 48.5345 272.234 47.5492 272.234 46.3103C272.234 45.0714 273.214 44.0862 274.398 44.0862C275.583 44.0862 276.562 45.0714 276.562 46.3103Z" fill="white" stroke="#0A1526"/>
<path d="M276.562 68.1035C276.562 69.3425 275.583 70.3277 274.398 70.3277C273.214 70.3277 272.234 69.3425 272.234 68.1035C272.234 66.8646 273.214 65.8794 274.398 65.8794C275.583 65.8794 276.562 66.8646 276.562 68.1035Z" fill="white" stroke="#0A1526"/>
<path d="M276.562 89.8967C276.562 91.1357 275.583 92.1209 274.398 92.1209C273.214 92.1209 272.234 91.1357 272.234 89.8967C272.234 88.6578 273.214 87.6726 274.398 87.6726C275.583 87.6726 276.562 88.6578 276.562 89.8967Z" fill="white" stroke="#0A1526"/>
<path d="M276.562 111.69C276.562 112.929 275.583 113.914 274.398 113.914C273.214 113.914 272.234 112.929 272.234 111.69C272.234 110.451 273.214 109.466 274.398 109.466C275.583 109.466 276.562 110.451 276.562 111.69Z" fill="white" stroke="#0A1526"/>
<path d="M276.562 133.483C276.562 134.722 275.583 135.707 274.398 135.707C273.214 135.707 272.234 134.722 272.234 133.483C272.234 132.244 273.214 131.259 274.398 131.259C275.583 131.259 276.562 132.244 276.562 133.483Z" fill="white" stroke="#0A1526"/>
<path d="M276.562 155.276C276.562 156.515 275.583 157.5 274.398 157.5C273.214 157.5 272.234 156.515 272.234 155.276C272.234 154.037 273.214 153.052 274.398 153.052C275.583 153.052 276.562 154.037 276.562 155.276Z" fill="white" stroke="#0A1526"/>
<path d="M292.547 2.72414C292.547 3.96307 291.568 4.94828 290.383 4.94828C289.198 4.94828 288.219 3.96307 288.219 2.72414C288.219 1.48521 289.198 0.5 290.383 0.5C291.568 0.5 292.547 1.48521 292.547 2.72414Z" fill="white" stroke="#0A1526"/>
<path d="M292.547 24.5171C292.547 25.756 291.568 26.7412 290.383 26.7412C289.198 26.7412 288.219 25.756 288.219 24.5171C288.219 23.2782 289.198 22.293 290.383 22.293C291.568 22.293 292.547 23.2782 292.547 24.5171Z" fill="white" stroke="#0A1526"/>
<path d="M292.547 46.3103C292.547 47.5492 291.568 48.5345 290.383 48.5345C289.198 48.5345 288.219 47.5492 288.219 46.3103C288.219 45.0714 289.198 44.0862 290.383 44.0862C291.568 44.0862 292.547 45.0714 292.547 46.3103Z" fill="white" stroke="#0A1526"/>
<path d="M292.547 68.1035C292.547 69.3425 291.568 70.3277 290.383 70.3277C289.198 70.3277 288.219 69.3425 288.219 68.1035C288.219 66.8646 289.198 65.8794 290.383 65.8794C291.568 65.8794 292.547 66.8646 292.547 68.1035Z" fill="white" stroke="#0A1526"/>
<path d="M292.547 89.8967C292.547 91.1357 291.568 92.1209 290.383 92.1209C289.198 92.1209 288.219 91.1357 288.219 89.8967C288.219 88.6578 289.198 87.6726 290.383 87.6726C291.568 87.6726 292.547 88.6578 292.547 89.8967Z" fill="white" stroke="#0A1526"/>
<path d="M292.547 111.69C292.547 112.929 291.568 113.914 290.383 113.914C289.198 113.914 288.219 112.929 288.219 111.69C288.219 110.451 289.198 109.466 290.383 109.466C291.568 109.466 292.547 110.451 292.547 111.69Z" fill="white" stroke="#0A1526"/>
<path d="M292.547 133.483C292.547 134.722 291.568 135.707 290.383 135.707C289.198 135.707 288.219 134.722 288.219 133.483C288.219 132.244 289.198 131.259 290.383 131.259C291.568 131.259 292.547 132.244 292.547 133.483Z" fill="white" stroke="#0A1526"/>
<path d="M292.547 155.276C292.547 156.515 291.568 157.5 290.383 157.5C289.198 157.5 288.219 156.515 288.219 155.276C288.219 154.037 289.198 153.052 290.383 153.052C291.568 153.052 292.547 154.037 292.547 155.276Z" fill="white" stroke="#0A1526"/>
<path d="M308.531 2.72414C308.531 3.96307 307.552 4.94828 306.367 4.94828C305.182 4.94828 304.203 3.96307 304.203 2.72414C304.203 1.48521 305.182 0.5 306.367 0.5C307.552 0.5 308.531 1.48521 308.531 2.72414Z" fill="white" stroke="#0A1526"/>
<path d="M308.531 24.5171C308.531 25.756 307.552 26.7412 306.367 26.7412C305.182 26.7412 304.203 25.756 304.203 24.5171C304.203 23.2782 305.182 22.293 306.367 22.293C307.552 22.293 308.531 23.2782 308.531 24.5171Z" fill="white" stroke="#0A1526"/>
<path d="M308.531 46.3103C308.531 47.5492 307.552 48.5345 306.367 48.5345C305.182 48.5345 304.203 47.5492 304.203 46.3103C304.203 45.0714 305.182 44.0862 306.367 44.0862C307.552 44.0862 308.531 45.0714 308.531 46.3103Z" fill="white" stroke="#0A1526"/>
<path d="M308.531 68.1035C308.531 69.3425 307.552 70.3277 306.367 70.3277C305.182 70.3277 304.203 69.3425 304.203 68.1035C304.203 66.8646 305.182 65.8794 306.367 65.8794C307.552 65.8794 308.531 66.8646 308.531 68.1035Z" fill="white" stroke="#0A1526"/>
<path d="M308.531 89.8967C308.531 91.1357 307.552 92.1209 306.367 92.1209C305.182 92.1209 304.203 91.1357 304.203 89.8967C304.203 88.6578 305.182 87.6726 306.367 87.6726C307.552 87.6726 308.531 88.6578 308.531 89.8967Z" fill="white" stroke="#0A1526"/>
<path d="M308.531 111.69C308.531 112.929 307.552 113.914 306.367 113.914C305.182 113.914 304.203 112.929 304.203 111.69C304.203 110.451 305.182 109.466 306.367 109.466C307.552 109.466 308.531 110.451 308.531 111.69Z" fill="white" stroke="#0A1526"/>
<path d="M308.531 133.483C308.531 134.722 307.552 135.707 306.367 135.707C305.182 135.707 304.203 134.722 304.203 133.483C304.203 132.244 305.182 131.259 306.367 131.259C307.552 131.259 308.531 132.244 308.531 133.483Z" fill="white" stroke="#0A1526"/>
<path d="M308.531 155.276C308.531 156.515 307.552 157.5 306.367 157.5C305.182 157.5 304.203 156.515 304.203 155.276C304.203 154.037 305.182 153.052 306.367 153.052C307.552 153.052 308.531 154.037 308.531 155.276Z" fill="white" stroke="#0A1526"/>
<path d="M324.516 2.72414C324.516 3.96307 323.536 4.94828 322.352 4.94828C321.167 4.94828 320.188 3.96307 320.188 2.72414C320.188 1.48521 321.167 0.5 322.352 0.5C323.536 0.5 324.516 1.48521 324.516 2.72414Z" fill="white" stroke="#0A1526"/>
<path d="M324.516 24.5171C324.516 25.756 323.536 26.7412 322.352 26.7412C321.167 26.7412 320.188 25.756 320.188 24.5171C320.188 23.2782 321.167 22.293 322.352 22.293C323.536 22.293 324.516 23.2782 324.516 24.5171Z" fill="white" stroke="#0A1526"/>
<path d="M324.516 46.3103C324.516 47.5492 323.536 48.5345 322.352 48.5345C321.167 48.5345 320.188 47.5492 320.188 46.3103C320.188 45.0714 321.167 44.0862 322.352 44.0862C323.536 44.0862 324.516 45.0714 324.516 46.3103Z" fill="white" stroke="#0A1526"/>
<path d="M324.516 68.1035C324.516 69.3425 323.536 70.3277 322.352 70.3277C321.167 70.3277 320.188 69.3425 320.188 68.1035C320.188 66.8646 321.167 65.8794 322.352 65.8794C323.536 65.8794 324.516 66.8646 324.516 68.1035Z" fill="white" stroke="#0A1526"/>
<path d="M324.516 89.8967C324.516 91.1357 323.536 92.1209 322.352 92.1209C321.167 92.1209 320.188 91.1357 320.188 89.8967C320.188 88.6578 321.167 87.6726 322.352 87.6726C323.536 87.6726 324.516 88.6578 324.516 89.8967Z" fill="white" stroke="#0A1526"/>
<path d="M324.516 111.69C324.516 112.929 323.536 113.914 322.352 113.914C321.167 113.914 320.188 112.929 320.188 111.69C320.188 110.451 321.167 109.466 322.352 109.466C323.536 109.466 324.516 110.451 324.516 111.69Z" fill="white" stroke="#0A1526"/>
<path d="M324.516 133.483C324.516 134.722 323.536 135.707 322.352 135.707C321.167 135.707 320.188 134.722 320.188 133.483C320.188 132.244 321.167 131.259 322.352 131.259C323.536 131.259 324.516 132.244 324.516 133.483Z" fill="white" stroke="#0A1526"/>
<path d="M324.516 155.276C324.516 156.515 323.536 157.5 322.352 157.5C321.167 157.5 320.188 156.515 320.188 155.276C320.188 154.037 321.167 153.052 322.352 153.052C323.536 153.052 324.516 154.037 324.516 155.276Z" fill="white" stroke="#0A1526"/>
<path d="M340.5 2.72414C340.5 3.96307 339.521 4.94828 338.336 4.94828C337.151 4.94828 336.172 3.96307 336.172 2.72414C336.172 1.48521 337.151 0.5 338.336 0.5C339.521 0.5 340.5 1.48521 340.5 2.72414Z" fill="white" stroke="#0A1526"/>
<path d="M340.5 24.5171C340.5 25.756 339.521 26.7412 338.336 26.7412C337.151 26.7412 336.172 25.756 336.172 24.5171C336.172 23.2782 337.151 22.293 338.336 22.293C339.521 22.293 340.5 23.2782 340.5 24.5171Z" fill="white" stroke="#0A1526"/>
<path d="M340.5 46.3103C340.5 47.5492 339.521 48.5345 338.336 48.5345C337.151 48.5345 336.172 47.5492 336.172 46.3103C336.172 45.0714 337.151 44.0862 338.336 44.0862C339.521 44.0862 340.5 45.0714 340.5 46.3103Z" fill="white" stroke="#0A1526"/>
<path d="M340.5 68.1035C340.5 69.3425 339.521 70.3277 338.336 70.3277C337.151 70.3277 336.172 69.3425 336.172 68.1035C336.172 66.8646 337.151 65.8794 338.336 65.8794C339.521 65.8794 340.5 66.8646 340.5 68.1035Z" fill="white" stroke="#0A1526"/>
<path d="M340.5 89.8967C340.5 91.1357 339.521 92.1209 338.336 92.1209C337.151 92.1209 336.172 91.1357 336.172 89.8967C336.172 88.6578 337.151 87.6726 338.336 87.6726C339.521 87.6726 340.5 88.6578 340.5 89.8967Z" fill="white" stroke="#0A1526"/>
<path d="M340.5 111.69C340.5 112.929 339.521 113.914 338.336 113.914C337.151 113.914 336.172 112.929 336.172 111.69C336.172 110.451 337.151 109.466 338.336 109.466C339.521 109.466 340.5 110.451 340.5 111.69Z" fill="white" stroke="#0A1526"/>
<path d="M340.5 133.483C340.5 134.722 339.521 135.707 338.336 135.707C337.151 135.707 336.172 134.722 336.172 133.483C336.172 132.244 337.151 131.259 338.336 131.259C339.521 131.259 340.5 132.244 340.5 133.483Z" fill="white" stroke="#0A1526"/>
<path d="M340.5 155.276C340.5 156.515 339.521 157.5 338.336 157.5C337.151 157.5 336.172 156.515 336.172 155.276C336.172 154.037 337.151 153.052 338.336 153.052C339.521 153.052 340.5 154.037 340.5 155.276Z" fill="white" stroke="#0A1526"/>
</svg>
